# xmcd
#
# Track frame offsets:
#	183
#	16075
#	28083
#	38968
#	53263
#	65418
#	77005
#	89010
#	106533
#	117280
#	130793
#	151053
#	169655
#	188018
#	202293
#	215953
#	226110
#	240823
#	252518
#	266543
#	277595
#	290940
#	301563
#	315020
#	328265
#
# Disc length: 4620 seconds
#
# Revision: 0
# Processed by: cddbd v1.5.2PL0 Copyright (c) Steve Scherf et al.
# Submitted via: audiograbber 1.83.01
#
DISCID=46120a19
DTITLE=Various Artist - The Best Punk Album In The World...Ever! [Disc 1]
DYEAR=1995
DGENRE=Punk
TTITLE0=Sex Pistols - Anarchy In The U.K.
TTITLE1=The Buzzcocks - Ever Fallen In Love (With Someone You Shouldn't've)
TTITLE2=The Undertones - Teenage Kicks
TTITLE3=The Skids - Into The Valley
TTITLE4=The Damned - New Rose
TTITLE5=The Ruts - Babylon's Burning
TTITLE6=Ramones - Sheena Is A Punk Rocker
TTITLE7=The Members - The Sound Of The Suburbs
TTITLE8=The Jam - All Around The World
TTITLE9=The Only Ones - Another Girl, Another Planet
TTITLE10=Iggy Pop - The Pasenger
TTITLE11=XTC - Making Plans For Nigel
TTITLE12=The Stranglers - Peaches
TTITLE13=Ian Dury - Sex and Drugs and Rock and Roll
TTITLE14=Elvis Costello and The Attractions - (I Don't Want To Go To) Chelsea
TTITLE15=Blondie - Denis
TTITLE16=Tom Robinson Band - 2-4-6-8 Motorway
TTITLE17=Dr. Feelgood - Milk And Alcohol
TTITLE18=Boomtown Rats - Lookin' After No. 1
TTITLE19=Adam and The Ants - Deutscher Girls
TTITLE20=Siouxsie And The Banshees - Christine
TTITLE21=X-Ray Spex - Identity
TTITLE22=Bow Wow Wow - C30, C60, C90
TTITLE23=Public Image Ltd - Public Image
TTITLE24=Sid Vicious - My Way
EXTD=
EXTT0=
EXTT1=
EXTT2=
EXTT3=
EXTT4=
EXTT5=
EXTT6=
EXTT7=
EXTT8=
EXTT9=
EXTT10=
EXTT11=
EXTT12=
EXTT13=
EXTT14=
EXTT15=
EXTT16=
EXTT17=
EXTT18=
EXTT19=
EXTT20=
EXTT21=
EXTT22=
EXTT23=
EXTT24=
PLAYORDER=
